<svg xmlns="http://www.w3.org/2000/svg" style="display:none">
<symbol id="art-breath-count" viewBox="0 0 100 74"><circle cx="50" cy="44" r="15" fill="#fff" stroke="currentColor" stroke-width="2.2"/><circle cx="50" cy="44" r="25" fill="none" stroke="currentColor" stroke-width="1.5" stroke-dasharray="5 5" opacity=".55"/><path d="M50 6v13" stroke="currentColor" stroke-width="2.2" stroke-linecap="round"/><path d="M44 12l6-6 6 6" fill="none" stroke="currentColor" stroke-width="2.2" stroke-linecap="round" stroke-linejoin="round"/></symbol>
<symbol id="art-walk" viewBox="0 0 100 74"><circle cx="46" cy="15" r="7" fill="#fff" stroke="currentColor" stroke-width="2.2"/><path d="M46 24v20M46 44l-9 17M46 44l10 17M36 31l10 4 12-6" fill="none" stroke="currentColor" stroke-width="2.2" stroke-linecap="round" stroke-linejoin="round"/><path d="M10 69q22-8 44 0t36-6" fill="none" stroke="currentColor" stroke-width="1.6" stroke-dasharray="5 4" stroke-linecap="round" opacity=".55"/></symbol>
<symbol id="art-countdown" viewBox="0 0 100 74"><g font-family="sans-serif" font-weight="500" text-anchor="middle" fill="currentColor"><text x="50" y="24" font-size="21">20</text><text x="50" y="46" font-size="16" opacity=".8">19</text><text x="50" y="63" font-size="13" opacity=".6">18</text></g><path d="M50 68v5" stroke="currentColor" stroke-width="2" stroke-dasharray="3 3" stroke-linecap="round" opacity=".55"/></symbol>
<symbol id="art-door-exit" viewBox="0 0 100 74"><path d="M56 70V12q0-4 4-4h24q4 0 4 4v58z" fill="#fff" stroke="currentColor" stroke-width="2.2" stroke-linejoin="round"/><circle cx="80" cy="38" r="2.6" fill="currentColor"/><circle cx="30" cy="20" r="9" fill="#fff" stroke="currentColor" stroke-width="2.2"/><path d="M30 30v18M30 48l-9 18M30 48l10 18M19 38l11 3 12-6" fill="none" stroke="currentColor" stroke-width="2.2" stroke-linecap="round" stroke-linejoin="round"/></symbol>
<symbol id="art-cold-water" viewBox="0 0 100 74"><path d="M26 8h20v10" fill="none" stroke="currentColor" stroke-width="2.2" stroke-linecap="round" stroke-linejoin="round"/><rect x="40" y="18" width="14" height="7" rx="2" fill="#fff" stroke="currentColor" stroke-width="2"/><path d="M47 30v10M41 34v7M53 34v7" stroke="currentColor" stroke-width="2.2" stroke-linecap="round" opacity=".6"/><path d="M24 70q0-18 23-18t23 18" fill="#fff" stroke="currentColor" stroke-width="2.2" stroke-linejoin="round"/></symbol>
<symbol id="art-squeeze" viewBox="0 0 100 74"><circle cx="52" cy="40" r="14" fill="currentColor" opacity=".25"/><circle cx="52" cy="40" r="14" fill="none" stroke="currentColor" stroke-width="2"/><path d="M30 62q-6-8-6-16v-8q0-4 4-4t4 4v4q0-6 4-6t4 6v-2q0-6 4-6t4 6v2q0-5 4-5t4 5v18q0 8-5 12z" fill="#fff" stroke="currentColor" stroke-width="2" stroke-linejoin="round"/><path d="M78 26l-6 5M78 54l-6-5M84 40h-8" stroke="currentColor" stroke-width="2" stroke-linecap="round"/></symbol>
<symbol id="art-quiet" viewBox="0 0 100 74"><circle cx="36" cy="22" r="9" fill="#fff" stroke="currentColor" stroke-width="2.2"/><path d="M23 62V48q0-10 13-10t13 10v14" fill="#fff" stroke="currentColor" stroke-width="2.2" stroke-linejoin="round"/><path d="M66 28q8 10 0 20M76 22q13 16 0 32" fill="none" stroke="currentColor" stroke-width="2.2" stroke-linecap="round" opacity=".55"/><path d="M64 22l22 32" stroke="currentColor" stroke-width="2.4" stroke-linecap="round"/></symbol>
<symbol id="art-talk" viewBox="0 0 100 74"><path d="M10 14h44q5 0 5 5v19q0 5-5 5H26l-11 9v-9h-5q-5 0-5-5V19q0-5 5-5z" fill="#fff" stroke="currentColor" stroke-width="2.2" stroke-linejoin="round"/><path d="M52 30h32q5 0 5 5v15q0 5-5 5h-4v8l-10-8H52q-5 0-5-5V35q0-5 5-5z" fill="currentColor" opacity=".25"/><path d="M52 30h32q5 0 5 5v15q0 5-5 5h-4v8l-10-8H52q-5 0-5-5V35q0-5 5-5z" fill="none" stroke="currentColor" stroke-width="2" stroke-linejoin="round"/></symbol>
<symbol id="art-scoreboard" viewBox="0 0 100 74"><rect x="14" y="17" width="72" height="40" rx="5" fill="#fff" stroke="currentColor" stroke-width="2.2"/><path d="M50 17v40" stroke="currentColor" stroke-width="1.6"/><g font-family="sans-serif" font-weight="500" text-anchor="middle" fill="currentColor"><text x="32" y="45" font-size="18">2</text><text x="68" y="45" font-size="18">3</text></g><path d="M68 64v6" stroke="currentColor" stroke-width="2.2" stroke-linecap="round"/><path d="M63 68l5 4 5-4" fill="none" stroke="currentColor" stroke-width="2.2" stroke-linecap="round" stroke-linejoin="round"/></symbol>
<symbol id="art-hourglass" viewBox="0 0 100 74"><path d="M32 10h36M32 63h36" stroke="currentColor" stroke-width="2.4" stroke-linecap="round"/><path d="M36 10q0 18 14 26-14 8-14 27" fill="#fff" stroke="currentColor" stroke-width="2.2" stroke-linejoin="round"/><path d="M64 10q0 18-14 26 14 8 14 27" fill="#fff" stroke="currentColor" stroke-width="2.2" stroke-linejoin="round"/><path d="M42 16h16q-2 12-8 16-6-4-8-16z" fill="currentColor" opacity=".4"/><path d="M50 40v10" stroke="currentColor" stroke-width="2" stroke-linecap="round" stroke-dasharray="2 3"/></symbol>
<symbol id="art-bump" viewBox="0 0 100 74"><g fill="#fff" stroke="currentColor" stroke-width="2.2" stroke-linejoin="round"><circle cx="28" cy="23" r="8"/><path d="M17 61V45q0-10 11-10t11 10v16z"/><circle cx="72" cy="23" r="8"/><path d="M61 61V45q0-10 11-10t11 10v16z"/></g><path d="M50 29v6M44 33l-4 4M56 33l4 4M50 43v6" stroke="currentColor" stroke-width="2.4" stroke-linecap="round"/></symbol>
<symbol id="art-laughter" viewBox="0 0 100 74"><path d="M12 13h30q4 0 4 4v14q0 4-4 4H24l-8 7v-7h-4q-4 0-4-4V17q0-4 4-4z" fill="currentColor" opacity=".25"/><path d="M12 13h30q4 0 4 4v14q0 4-4 4H24l-8 7v-7h-4q-4 0-4-4V17q0-4 4-4z" fill="none" stroke="currentColor" stroke-width="2" stroke-linejoin="round"/><path d="M56 19h30q4 0 4 4v12q0 4-4 4H70l-8 6v-6h-6q-4 0-4-4V23q0-4 4-4z" fill="currentColor" opacity=".25"/><path d="M56 19h30q4 0 4 4v12q0 4-4 4H70l-8 6v-6h-6q-4 0-4-4V23q0-4 4-4z" fill="none" stroke="currentColor" stroke-width="2" stroke-linejoin="round"/><circle cx="50" cy="55" r="7" fill="#fff" stroke="currentColor" stroke-width="2.2"/><path d="M40 73v-6q0-6 10-6t10 6v6" fill="#fff" stroke="currentColor" stroke-width="2.2" stroke-linejoin="round"/></symbol>
<symbol id="art-redo" viewBox="0 0 100 74"><rect x="26" y="7" width="42" height="54" rx="4" fill="#fff" stroke="currentColor" stroke-width="2.2"/><path d="M34 21h26M34 31h26M34 41h16" stroke="currentColor" stroke-width="2.4" stroke-linecap="round" opacity=".5"/><path d="M74 45a16 16 0 1 1-6-13" fill="none" stroke="currentColor" stroke-width="2.4" stroke-linecap="round"/><path d="M62 29h8v-8" fill="none" stroke="currentColor" stroke-width="2.4" stroke-linecap="round" stroke-linejoin="round"/></symbol>
<symbol id="art-share" viewBox="0 0 100 74"><path d="M4 58q0-9 9-11l16-3v18q-11 3-16 3-9 0-9-7z" fill="#fff" stroke="currentColor" stroke-width="2.2" stroke-linejoin="round"/><path d="M96 58q0-9-9-11l-16-3v18q11 3 16 3 9 0 9-7z" fill="#fff" stroke="currentColor" stroke-width="2.2" stroke-linejoin="round"/><g transform="rotate(-8 50 37)"><rect x="28" y="33" width="44" height="9" rx="2" fill="currentColor" opacity=".3"/><rect x="28" y="33" width="44" height="9" rx="2" fill="none" stroke="currentColor" stroke-width="2"/><path d="M70 29l8 3-8 4z" fill="currentColor"/></g><path d="M36 21h28" stroke="currentColor" stroke-width="2.2" stroke-linecap="round" stroke-dasharray="4 3"/><path d="M58 16l6 5-6 5" fill="none" stroke="currentColor" stroke-width="2.2" stroke-linecap="round" stroke-linejoin="round"/></symbol>
<symbol id="art-raise-card" viewBox="0 0 100 74"><rect x="58" y="4" width="26" height="19" rx="3" fill="currentColor" opacity=".3"/><rect x="58" y="4" width="26" height="19" rx="3" fill="none" stroke="currentColor" stroke-width="2"/><circle cx="36" cy="26" r="9" fill="#fff" stroke="currentColor" stroke-width="2.2"/><path d="M25 54V43q0-9 11-9t11 9v11" fill="#fff" stroke="currentColor" stroke-width="2.2" stroke-linejoin="round"/><path d="M47 40l12-14" fill="none" stroke="currentColor" stroke-width="2.2" stroke-linecap="round"/><path d="M8 54h78" stroke="currentColor" stroke-width="2.4" stroke-linecap="round"/><path d="M18 54v14M76 54v14" stroke="currentColor" stroke-width="2" stroke-linecap="round"/></symbol>
<symbol id="art-nod" viewBox="0 0 100 74"><circle cx="30" cy="24" r="9" fill="#fff" stroke="currentColor" stroke-width="2.2"/><path d="M18 62V48q0-10 12-10t12 10v14" fill="#fff" stroke="currentColor" stroke-width="2.2" stroke-linejoin="round"/><path d="M46 10q7 5 0 10" fill="none" stroke="currentColor" stroke-width="2" stroke-linecap="round" opacity=".6"/><path d="M58 32l8 9 16-18" fill="none" stroke="currentColor" stroke-width="2.8" stroke-linecap="round" stroke-linejoin="round"/></symbol>
<symbol id="art-return-seat" viewBox="0 0 100 74"><rect x="54" y="26" width="28" height="6" rx="2" fill="currentColor" opacity=".3"/><rect x="54" y="26" width="28" height="6" rx="2" fill="none" stroke="currentColor" stroke-width="2"/><path d="M58 32v22M78 32v22M78 26V12" stroke="currentColor" stroke-width="2" stroke-linecap="round"/><circle cx="22" cy="22" r="9" fill="#fff" stroke="currentColor" stroke-width="2.2"/><path d="M22 32v16M22 48l-8 14M22 48l9 14" fill="none" stroke="currentColor" stroke-width="2.2" stroke-linecap="round"/><path d="M46 36h-8" stroke="currentColor" stroke-width="2.2" stroke-linecap="round"/><path d="M44 31l6 5-6 5" fill="none" stroke="currentColor" stroke-width="2.2" stroke-linecap="round" stroke-linejoin="round"/></symbol>
<symbol id="art-trigger" viewBox="0 0 100 74"><path d="M56 8L36 40h14l-8 26 26-34H54z" fill="currentColor" opacity=".3"/><path d="M56 8L36 40h14l-8 26 26-34H54z" fill="none" stroke="currentColor" stroke-width="2.2" stroke-linejoin="round"/></symbol>
<symbol id="art-body-signals" viewBox="0 0 100 74"><circle cx="50" cy="38" r="10" fill="#fff" stroke="currentColor" stroke-width="2.2"/><path d="M36 70v-9q0-10 14-10t14 10v9" fill="#fff" stroke="currentColor" stroke-width="2.2" stroke-linejoin="round"/><path d="M34 18q5-8 0-14M50 14q5-8 0-14M66 18q5-8 0-14" fill="none" stroke="currentColor" stroke-width="2.2" stroke-linecap="round" opacity=".7"/></symbol>
<symbol id="art-thoughts" viewBox="0 0 100 74"><path d="M20 12h56q6 0 6 6v22q0 6-6 6H40l-10 9v-9h-10q-6 0-6-6V18q0-6 6-6z" fill="#fff" stroke="currentColor" stroke-width="2.2" stroke-linejoin="round"/><path d="M32 26h32M32 35h20" stroke="currentColor" stroke-width="2.4" stroke-linecap="round" opacity=".5"/></symbol>
<symbol id="art-fork" viewBox="0 0 100 74"><path d="M50 70V44" stroke="currentColor" stroke-width="2.6" stroke-linecap="round"/><path d="M50 44q0-18-24-18M50 44q0-18 24-18" fill="none" stroke="currentColor" stroke-width="2.6" stroke-linecap="round"/><path d="M26 26l-6-5M26 26l6-5M74 26l-6-5M74 26l6-5" stroke="currentColor" stroke-width="2.4" stroke-linecap="round"/></symbol>

<symbol id="art-clock" viewBox="0 0 100 74"><circle cx="50" cy="38" r="24" fill="#fff" stroke="currentColor" stroke-width="2.2"/><path d="M50 38V22M50 38l12 6" stroke="currentColor" stroke-width="2.4" stroke-linecap="round"/><path d="M50 10V6M50 70v-4M78 38h4M18 38h4" stroke="currentColor" stroke-width="2" stroke-linecap="round" opacity=".6"/></symbol>
<symbol id="art-instruction" viewBox="0 0 100 74"><circle cx="26" cy="20" r="8" fill="#fff" stroke="currentColor" stroke-width="2"/><path d="M15 54V42q0-9 11-9t11 9v12" fill="#fff" stroke="currentColor" stroke-width="2" stroke-linejoin="round"/><path d="M44 22h34q4 0 4 4v14q0 4-4 4H58l-8 7v-7h-6q-4 0-4-4V26q0-4 4-4z" fill="currentColor" opacity=".22"/><path d="M44 22h34q4 0 4 4v14q0 4-4 4H58l-8 7v-7h-6q-4 0-4-4V26q0-4 4-4z" fill="none" stroke="currentColor" stroke-width="2" stroke-linejoin="round"/><path d="M56 33l5 5 10-11" fill="none" stroke="currentColor" stroke-width="2.4" stroke-linecap="round" stroke-linejoin="round"/></symbol>
<symbol id="art-phone-off" viewBox="0 0 100 74"><rect x="36" y="8" width="28" height="50" rx="5" fill="#fff" stroke="currentColor" stroke-width="2.2"/><path d="M45 15h10" stroke="currentColor" stroke-width="2" stroke-linecap="round" opacity=".6"/><path d="M24 66L76 8" stroke="currentColor" stroke-width="2.6" stroke-linecap="round"/></symbol>
<symbol id="art-corridor" viewBox="0 0 100 74"><path d="M14 66l14-46M86 66L72 20" stroke="currentColor" stroke-width="2.2" stroke-linecap="round" opacity=".5"/><circle cx="50" cy="22" r="8" fill="#fff" stroke="currentColor" stroke-width="2.2"/><path d="M50 31v16M50 47l-7 15M50 47l8 15M41 38l9 3 10-4" fill="none" stroke="currentColor" stroke-width="2.2" stroke-linecap="round" stroke-linejoin="round"/></symbol>
<symbol id="art-uniform" viewBox="0 0 100 74"><path d="M34 12l16 8 16-8 14 8-6 14-6-3v33H32V31l-6 3-6-14z" fill="#fff" stroke="currentColor" stroke-width="2.2" stroke-linejoin="round"/><path d="M50 20v12" stroke="currentColor" stroke-width="2" stroke-linecap="round"/><path d="M44 12l6 10 6-10" fill="currentColor" opacity=".25"/></symbol>
<symbol id="art-bin" viewBox="0 0 100 74"><path d="M32 24h36l-4 42H36z" fill="#fff" stroke="currentColor" stroke-width="2.2" stroke-linejoin="round"/><path d="M26 24h48M42 18h16" stroke="currentColor" stroke-width="2.4" stroke-linecap="round"/><path d="M44 34v22M56 34v22" stroke="currentColor" stroke-width="2" stroke-linecap="round" opacity=".5"/><path d="M56 8l-6 8 8 2" fill="none" stroke="currentColor" stroke-width="2" stroke-linecap="round" stroke-linejoin="round" opacity=".7"/></symbol>
<symbol id="art-hand-up" viewBox="0 0 100 74"><path d="M44 30V10q0-4 4-4t4 4v20" fill="#fff" stroke="currentColor" stroke-width="2.2" stroke-linejoin="round"/><path d="M38 66q-5-8-5-16V32q0-4 4-4t4 4v6q0-5 4-5t4 5v-2q0-5 4-5t4 5v3q0-4 4-4t4 4v11q0 8-5 16z" fill="#fff" stroke="currentColor" stroke-width="2.2" stroke-linejoin="round"/></symbol>
<symbol id="art-space" viewBox="0 0 100 74"><circle cx="26" cy="24" r="8" fill="#fff" stroke="currentColor" stroke-width="2.2"/><path d="M15 62V46q0-10 11-10t11 10v16" fill="#fff" stroke="currentColor" stroke-width="2.2" stroke-linejoin="round"/><circle cx="74" cy="24" r="8" fill="#fff" stroke="currentColor" stroke-width="2.2"/><path d="M63 62V46q0-10 11-10t11 10v16" fill="#fff" stroke="currentColor" stroke-width="2.2" stroke-linejoin="round"/><path d="M44 40h12" stroke="currentColor" stroke-width="2.2" stroke-linecap="round"/><path d="M44 40l4-4M44 40l4 4M56 40l-4-4M56 40l-4 4" stroke="currentColor" stroke-width="2" stroke-linecap="round"/></symbol>
<symbol id="art-move-seat" viewBox="0 0 100 74"><rect x="10" y="30" width="24" height="6" rx="2" fill="currentColor" opacity=".25"/><rect x="10" y="30" width="24" height="6" rx="2" fill="none" stroke="currentColor" stroke-width="2"/><path d="M14 36v18M30 36v18M30 30V16" stroke="currentColor" stroke-width="2" stroke-linecap="round"/><rect x="66" y="30" width="24" height="6" rx="2" fill="#fff" stroke="currentColor" stroke-width="2"/><path d="M70 36v18M86 36v18M86 30V16" stroke="currentColor" stroke-width="2" stroke-linecap="round"/><path d="M42 42h16" stroke="currentColor" stroke-width="2.4" stroke-linecap="round" stroke-dasharray="4 3"/><path d="M54 37l6 5-6 5" fill="none" stroke="currentColor" stroke-width="2.4" stroke-linecap="round" stroke-linejoin="round"/></symbol>
<symbol id="art-first-then" viewBox="0 0 100 74"><rect x="8" y="22" width="34" height="30" rx="5" fill="#fff" stroke="currentColor" stroke-width="2.2"/><rect x="58" y="22" width="34" height="30" rx="5" fill="currentColor" opacity=".2"/><rect x="58" y="22" width="34" height="30" rx="5" fill="none" stroke="currentColor" stroke-width="2.2"/><path d="M46 37h8" stroke="currentColor" stroke-width="2.4" stroke-linecap="round"/><path d="M50 32l6 5-6 5" fill="none" stroke="currentColor" stroke-width="2.4" stroke-linecap="round" stroke-linejoin="round"/><g font-family="sans-serif" font-size="9" fill="currentColor" text-anchor="middle"><text x="25" y="16">first</text><text x="75" y="16">then</text></g></symbol>
<symbol id="art-five-senses" viewBox="0 0 100 74"><g font-family="sans-serif" font-weight="500" fill="currentColor"><text x="18" y="16" font-size="14">5</text><text x="18" y="33" font-size="14">4</text><text x="18" y="50" font-size="14">3</text><text x="18" y="67" font-size="14">2</text></g><g font-family="sans-serif" font-size="11" fill="currentColor" opacity=".8"><text x="36" y="16">see</text><text x="36" y="33">hear</text><text x="36" y="50">feel</text><text x="36" y="67">smell</text></g></symbol>
<symbol id="art-box-breath" viewBox="0 0 100 74"><rect x="26" y="10" width="48" height="48" rx="4" fill="#fff" stroke="currentColor" stroke-width="2.4"/><g font-family="sans-serif" font-size="10" fill="currentColor" text-anchor="middle"><text x="50" y="7">in 4</text><text x="50" y="70">out 4</text></g><g font-family="sans-serif" font-size="9" fill="currentColor" opacity=".75"><text x="76" y="37">hold</text><text x="4" y="37">hold</text></g><circle cx="26" cy="10" r="3.4" fill="currentColor"/></symbol>
<symbol id="art-hand-heart" viewBox="0 0 100 74"><circle cx="50" cy="16" r="8" fill="#fff" stroke="currentColor" stroke-width="2.2"/><path d="M32 68V44q0-12 18-12t18 12v24" fill="#fff" stroke="currentColor" stroke-width="2.2" stroke-linejoin="round"/><path d="M50 56c-8-6-12-10-12-15a6 6 0 0 1 12-3 6 6 0 0 1 12 3c0 5-4 9-12 15z" fill="currentColor" opacity=".3"/><path d="M50 56c-8-6-12-10-12-15a6 6 0 0 1 12-3 6 6 0 0 1 12 3c0 5-4 9-12 15z" fill="none" stroke="currentColor" stroke-width="2"/></symbol>
<symbol id="art-texture" viewBox="0 0 100 74"><path d="M30 62q-6-9-6-18V30q0-4 4-4t4 4v6q0-5 4-5t4 5v-2q0-5 4-5t4 5v3q0-4 4-4t4 4v13q0 9-5 16z" fill="#fff" stroke="currentColor" stroke-width="2.2" stroke-linejoin="round"/><path d="M64 22q8 4 8 12t-8 12" fill="none" stroke="currentColor" stroke-width="2.2" stroke-linecap="round" stroke-dasharray="3 3"/><path d="M76 16q12 8 12 18t-12 18" fill="none" stroke="currentColor" stroke-width="2" stroke-linecap="round" stroke-dasharray="3 3" opacity=".6"/></symbol>
<symbol id="art-tangle" viewBox="0 0 100 74"><path d="M20 42q14-26 30-10t22-6q12 12-6 22t-30 6q-18-6-4-18t34 8" fill="none" stroke="currentColor" stroke-width="2.6" stroke-linecap="round"/></symbol>
<symbol id="art-jagged" viewBox="0 0 100 74"><path d="M12 24q6-8 12 0t12 0 12 0 12 0 12 0 12 0" fill="none" stroke="currentColor" stroke-width="2.2" stroke-linecap="round" opacity=".55"/><path d="M12 42l8-11 8 11 8-11 8 11 8-11 8 11 8-11 8 11" fill="none" stroke="currentColor" stroke-width="2.4" stroke-linecap="round" stroke-linejoin="round"/><path d="M12 62l6-13 6 13 6-13 6 13 6-13 6 13 6-13 6 13 6-13 6 13" fill="none" stroke="currentColor" stroke-width="2.4" stroke-linecap="round" stroke-linejoin="round"/></symbol>
<symbol id="art-hide" viewBox="0 0 100 74"><circle cx="50" cy="26" r="12" fill="#fff" stroke="currentColor" stroke-width="2.2"/><path d="M30 70V56q0-12 20-12t20 12v14" fill="#fff" stroke="currentColor" stroke-width="2.2" stroke-linejoin="round"/><path d="M30 30q8-6 16 0M54 30q8-6 16 0" fill="none" stroke="currentColor" stroke-width="2.4" stroke-linecap="round"/><path d="M22 20l12 8M78 20l-12 8" stroke="currentColor" stroke-width="2" stroke-linecap="round" opacity=".55"/></symbol>
<symbol id="art-rise" viewBox="0 0 100 74"><path d="M16 62l16-14 14 10 22-28" fill="none" stroke="currentColor" stroke-width="2.8" stroke-linecap="round" stroke-linejoin="round"/><path d="M60 30h10v10" fill="none" stroke="currentColor" stroke-width="2.8" stroke-linecap="round" stroke-linejoin="round"/><circle cx="32" cy="48" r="3.4" fill="currentColor"/></symbol>
<symbol id="art-fall" viewBox="0 0 100 74"><path d="M16 20l16 14 14-10 22 28" fill="none" stroke="currentColor" stroke-width="2.8" stroke-linecap="round" stroke-linejoin="round"/><path d="M60 52h10V42" fill="none" stroke="currentColor" stroke-width="2.8" stroke-linecap="round" stroke-linejoin="round"/><circle cx="32" cy="34" r="3.4" fill="currentColor"/></symbol>
<symbol id="art-overload" viewBox="0 0 100 74"><circle cx="50" cy="46" r="14" fill="#fff" stroke="currentColor" stroke-width="2.2"/><g stroke="currentColor" stroke-width="2.2" stroke-linecap="round"><path d="M50 24V10M32 30L24 18M68 30l8-12M26 48H12M74 48h14M34 62l-8 10M66 62l8 10"/></g></symbol>
<symbol id="art-level" viewBox="0 0 100 74"><path d="M14 38h72" stroke="currentColor" stroke-width="2.8" stroke-linecap="round"/><circle cx="50" cy="38" r="7" fill="currentColor" opacity=".3"/><circle cx="50" cy="38" r="7" fill="none" stroke="currentColor" stroke-width="2"/></symbol>
<symbol id="art-compare" viewBox="0 0 100 74"><rect x="14" y="34" width="26" height="26" rx="4" fill="#fff" stroke="currentColor" stroke-width="2.2"/><rect x="60" y="16" width="26" height="44" rx="4" fill="currentColor" opacity=".28"/><rect x="60" y="16" width="26" height="44" rx="4" fill="none" stroke="currentColor" stroke-width="2.2"/><path d="M46 46h8" stroke="currentColor" stroke-width="2.2" stroke-linecap="round" opacity=".7"/></symbol>
<symbol id="art-sprout" viewBox="0 0 100 74"><path d="M50 66V34" stroke="currentColor" stroke-width="2.6" stroke-linecap="round"/><path d="M50 40q-14 0-16-14 14 0 16 14z" fill="currentColor" opacity=".3"/><path d="M50 40q-14 0-16-14 14 0 16 14z" fill="none" stroke="currentColor" stroke-width="2"/><path d="M50 34q14-2 15-16-14 1-15 16z" fill="#fff" stroke="currentColor" stroke-width="2"/><path d="M32 66h36" stroke="currentColor" stroke-width="2.4" stroke-linecap="round"/></symbol>
<symbol id="art-apart" viewBox="0 0 100 74"><circle cx="20" cy="26" r="7" fill="#fff" stroke="currentColor" stroke-width="2"/><path d="M11 58V46q0-9 9-9t9 9v12" fill="#fff" stroke="currentColor" stroke-width="2" stroke-linejoin="round"/><g opacity=".45"><circle cx="62" cy="26" r="7" fill="#fff" stroke="currentColor" stroke-width="2"/><path d="M53 58V46q0-9 9-9t9 9v12" fill="#fff" stroke="currentColor" stroke-width="2" stroke-linejoin="round"/><circle cx="82" cy="26" r="7" fill="#fff" stroke="currentColor" stroke-width="2"/><path d="M73 58V46q0-9 9-9t9 9v12" fill="#fff" stroke="currentColor" stroke-width="2" stroke-linejoin="round"/></g><path d="M38 42h8" stroke="currentColor" stroke-width="2" stroke-linecap="round" stroke-dasharray="3 4"/></symbol>
<symbol id="art-stand" viewBox="0 0 100 74"><circle cx="50" cy="18" r="9" fill="#fff" stroke="currentColor" stroke-width="2.2"/><path d="M50 28v20M50 48l-8 18M50 48l9 18M36 36h28" fill="none" stroke="currentColor" stroke-width="2.4" stroke-linecap="round"/><path d="M22 68h56" stroke="currentColor" stroke-width="2.2" stroke-linecap="round" opacity=".5"/></symbol>
<symbol id="art-friction" viewBox="0 0 100 74"><path d="M16 30h68M16 46h68" stroke="currentColor" stroke-width="2.6" stroke-linecap="round"/><path d="M28 38l6-6M42 38l6-6M56 38l6-6M70 38l6-6" stroke="currentColor" stroke-width="2" stroke-linecap="round" opacity=".7"/></symbol>

<symbol id="art-name-card" viewBox="0 0 100 74"><rect x="24" y="20" width="52" height="30" rx="4" fill="#fff" stroke="currentColor" stroke-width="2.2"/><path d="M34 32h32M34 40h20" stroke="currentColor" stroke-width="2.2" stroke-linecap="round" opacity=".55"/><path d="M14 58h72" stroke="currentColor" stroke-width="2.4" stroke-linecap="round"/></symbol>
<symbol id="art-thumb" viewBox="0 0 100 74"><path d="M38 66V36h-8q-4 0-4-4t4-4h10l6-18q1-4 5-4t5 5l-2 13h14q5 0 5 5l-4 30q-1 7-8 7z" fill="#fff" stroke="currentColor" stroke-width="2.2" stroke-linejoin="round"/></symbol>
<symbol id="art-agreed-word" viewBox="0 0 100 74"><path d="M12 14h34q4 0 4 4v16q0 4-4 4H26l-8 7v-7h-6q-4 0-4-4V18q0-4 4-4z" fill="#fff" stroke="currentColor" stroke-width="2" stroke-linejoin="round"/><path d="M54 30h34q4 0 4 4v16q0 4-4 4h-4v7l-8-7H54q-4 0-4-4V34q0-4 4-4z" fill="currentColor" opacity=".25"/><path d="M54 30h34q4 0 4 4v16q0 4-4 4h-4v7l-8-7H54q-4 0-4-4V34q0-4 4-4z" fill="none" stroke="currentColor" stroke-width="2" stroke-linejoin="round"/><path d="M40 44l6 6 8-10" fill="none" stroke="currentColor" stroke-width="2.4" stroke-linecap="round" stroke-linejoin="round"/></symbol>
<symbol id="art-locate" viewBox="0 0 100 74"><path d="M50 68s20-19 20-32a20 20 0 1 0-40 0c0 13 20 32 20 32z" fill="#fff" stroke="currentColor" stroke-width="2.2" stroke-linejoin="round"/><circle cx="50" cy="34" r="7" fill="currentColor" opacity=".35"/><circle cx="50" cy="34" r="7" fill="none" stroke="currentColor" stroke-width="2"/></symbol>
<symbol id="art-too-hard" viewBox="0 0 100 74"><rect x="26" y="10" width="48" height="54" rx="4" fill="#fff" stroke="currentColor" stroke-width="2.2"/><path d="M36 26h28M36 36h28M36 46h18" stroke="currentColor" stroke-width="2.2" stroke-linecap="round" opacity=".45"/><path d="M52 54q0-6 6-8t6-8-6-6-7 4" fill="none" stroke="currentColor" stroke-width="2.6" stroke-linecap="round"/><circle cx="52" cy="60" r="2.6" fill="currentColor"/></symbol>
<symbol id="art-too-easy" viewBox="0 0 100 74"><rect x="26" y="10" width="48" height="54" rx="4" fill="#fff" stroke="currentColor" stroke-width="2.2"/><path d="M36 26h28M36 36h28" stroke="currentColor" stroke-width="2.2" stroke-linecap="round" opacity=".45"/><path d="M38 48l6 6 16-16" fill="none" stroke="currentColor" stroke-width="2.6" stroke-linecap="round" stroke-linejoin="round"/></symbol>
<symbol id="art-noise" viewBox="0 0 100 74"><path d="M26 46V28h10l14-12v42L36 46z" fill="#fff" stroke="currentColor" stroke-width="2.2" stroke-linejoin="round"/><path d="M60 26q8 11 0 22M70 18q14 19 0 38" fill="none" stroke="currentColor" stroke-width="2.2" stroke-linecap="round"/></symbol>
<symbol id="art-tired" viewBox="0 0 100 74"><circle cx="42" cy="34" r="18" fill="#fff" stroke="currentColor" stroke-width="2.2"/><path d="M34 32q4 4 8 0M46 32q4 4 8 0" fill="none" stroke="currentColor" stroke-width="2.4" stroke-linecap="round"/><g font-family="sans-serif" fill="currentColor" font-weight="500"><text x="66" y="24" font-size="13">z</text><text x="76" y="14" font-size="16">z</text></g></symbol>
<symbol id="art-distract" viewBox="0 0 100 74"><circle cx="30" cy="24" r="9" fill="#fff" stroke="currentColor" stroke-width="2.2"/><path d="M19 62V48q0-11 11-11t11 11v14" fill="#fff" stroke="currentColor" stroke-width="2.2" stroke-linejoin="round"/><path d="M52 30h30q4 0 4 4v12q0 4-4 4H68l-8 6v-6h-8q-4 0-4-4V34q0-4 4-4z" fill="currentColor" opacity=".25"/><path d="M52 30h30q4 0 4 4v12q0 4-4 4H68l-8 6v-6h-8q-4 0-4-4V34q0-4 4-4z" fill="none" stroke="currentColor" stroke-width="2" stroke-linejoin="round"/><path d="M42 26h8" stroke="currentColor" stroke-width="2" stroke-linecap="round" stroke-dasharray="3 3"/></symbol>
<symbol id="art-confused" viewBox="0 0 100 74"><circle cx="50" cy="40" r="18" fill="#fff" stroke="currentColor" stroke-width="2.2"/><path d="M43 34q0-8 7-8t7 7-7 7v4" fill="none" stroke="currentColor" stroke-width="2.4" stroke-linecap="round"/><circle cx="50" cy="52" r="2.4" fill="currentColor"/><path d="M76 18l6-6M78 32h8M74 8l2-6" stroke="currentColor" stroke-width="2" stroke-linecap="round" opacity=".6"/></symbol>
<symbol id="art-hungry" viewBox="0 0 100 74"><path d="M34 12v22q0 6 6 6t6-6V12" fill="none" stroke="currentColor" stroke-width="2.4" stroke-linecap="round"/><path d="M40 40v24" stroke="currentColor" stroke-width="2.4" stroke-linecap="round"/><path d="M64 12q-8 6-8 18t8 10v24" fill="none" stroke="currentColor" stroke-width="2.4" stroke-linecap="round" stroke-linejoin="round"/></symbol>
<symbol id="art-odd-one" viewBox="0 0 100 74"><g opacity=".45" fill="#fff" stroke="currentColor" stroke-width="2"><circle cx="24" cy="30" r="9"/><circle cx="48" cy="30" r="9"/><circle cx="72" cy="30" r="9"/></g><rect x="38" y="48" width="20" height="20" rx="3" fill="currentColor" opacity=".3"/><rect x="38" y="48" width="20" height="20" rx="3" fill="none" stroke="currentColor" stroke-width="2.2"/></symbol>
<symbol id="art-past-hurt" viewBox="0 0 100 74"><path d="M50 62c-14-10-22-18-22-28a11 11 0 0 1 22-6 11 11 0 0 1 22 6c0 10-8 18-22 28z" fill="#fff" stroke="currentColor" stroke-width="2.2" stroke-linejoin="round"/><path d="M50 26l-6 10 10 6-8 12" fill="none" stroke="currentColor" stroke-width="2.4" stroke-linecap="round" stroke-linejoin="round"/></symbol>
<symbol id="art-join" viewBox="0 0 100 74"><g fill="#fff" stroke="currentColor" stroke-width="2" opacity=".5"><circle cx="34" cy="24" r="8"/><path d="M24 58V46q0-10 10-10t10 10v12z"/><circle cx="60" cy="24" r="8"/><path d="M50 58V46q0-10 10-10t10 10v12z"/></g><circle cx="84" cy="42" r="8" fill="#fff" stroke="currentColor" stroke-width="2.2"/><path d="M12 42h10" stroke="currentColor" stroke-width="2.2" stroke-linecap="round"/><path d="M18 37l6 5-6 5" fill="none" stroke="currentColor" stroke-width="2.2" stroke-linecap="round" stroke-linejoin="round"/></symbol>
<symbol id="art-worry-words" viewBox="0 0 100 74"><path d="M20 14h60q5 0 5 5v24q0 5-5 5H42l-12 10V48h-10q-5 0-5-5V19q0-5 5-5z" fill="#fff" stroke="currentColor" stroke-width="2.2" stroke-linejoin="round"/><path d="M34 28h32M34 37h20" stroke="currentColor" stroke-width="2.2" stroke-linecap="round" opacity=".4"/><path d="M62 34l10 10M72 34l-10 10" stroke="currentColor" stroke-width="2.4" stroke-linecap="round"/></symbol>
<symbol id="art-alone-ok" viewBox="0 0 100 74"><circle cx="50" cy="26" r="10" fill="#fff" stroke="currentColor" stroke-width="2.2"/><path d="M36 64V50q0-14 14-14t14 14v14" fill="#fff" stroke="currentColor" stroke-width="2.2" stroke-linejoin="round"/><circle cx="50" cy="44" r="26" fill="none" stroke="currentColor" stroke-width="1.6" stroke-dasharray="5 5" opacity=".5"/></symbol>
<symbol id="art-low-conf" viewBox="0 0 100 74"><circle cx="50" cy="24" r="10" fill="#fff" stroke="currentColor" stroke-width="2.2"/><path d="M34 66V50q0-14 16-14t16 14v16" fill="#fff" stroke="currentColor" stroke-width="2.2" stroke-linejoin="round"/><path d="M32 44l-8 8M68 44l8 8" stroke="currentColor" stroke-width="2.2" stroke-linecap="round"/><path d="M42 14q8-8 16 0" fill="none" stroke="currentColor" stroke-width="2" stroke-linecap="round" opacity=".5"/></symbol>
<symbol id="art-empty-seat" viewBox="0 0 100 74"><rect x="16" y="28" width="26" height="6" rx="2" fill="currentColor" opacity=".28"/><rect x="16" y="28" width="26" height="6" rx="2" fill="none" stroke="currentColor" stroke-width="2"/><path d="M20 34v20M38 34v20M38 28V14" stroke="currentColor" stroke-width="2" stroke-linecap="round"/><rect x="58" y="28" width="26" height="6" rx="2" fill="#fff" stroke="currentColor" stroke-width="2" stroke-dasharray="4 3"/><path d="M62 34v20M80 34v20M80 28V14" stroke="currentColor" stroke-width="2" stroke-linecap="round" stroke-dasharray="4 3"/></symbol>
<symbol id="art-watch" viewBox="0 0 100 74"><path d="M14 38q16-18 36-18t36 18q-16 18-36 18T14 38z" fill="#fff" stroke="currentColor" stroke-width="2.2" stroke-linejoin="round"/><circle cx="50" cy="38" r="8" fill="currentColor" opacity=".35"/><circle cx="50" cy="38" r="8" fill="none" stroke="currentColor" stroke-width="2"/></symbol>
<symbol id="art-level-1" viewBox="0 0 100 74"><rect x="42" y="8" width="16" height="46" rx="8" fill="#fff" stroke="currentColor" stroke-width="2.2"/><circle cx="50" cy="60" r="10" fill="currentColor" opacity=".3"/><circle cx="50" cy="60" r="10" fill="none" stroke="currentColor" stroke-width="2.2"/><rect x="45" y="46" width="10" height="8" rx="4" fill="currentColor"/></symbol>
<symbol id="art-level-2" viewBox="0 0 100 74"><rect x="42" y="8" width="16" height="46" rx="8" fill="#fff" stroke="currentColor" stroke-width="2.2"/><circle cx="50" cy="60" r="10" fill="currentColor" opacity=".3"/><circle cx="50" cy="60" r="10" fill="none" stroke="currentColor" stroke-width="2.2"/><rect x="45" y="38" width="10" height="16" rx="5" fill="currentColor"/></symbol>
<symbol id="art-level-3" viewBox="0 0 100 74"><rect x="42" y="8" width="16" height="46" rx="8" fill="#fff" stroke="currentColor" stroke-width="2.2"/><circle cx="50" cy="60" r="10" fill="currentColor" opacity=".3"/><circle cx="50" cy="60" r="10" fill="none" stroke="currentColor" stroke-width="2.2"/><rect x="45" y="30" width="10" height="24" rx="5" fill="currentColor"/></symbol>
<symbol id="art-level-4" viewBox="0 0 100 74"><rect x="42" y="8" width="16" height="46" rx="8" fill="#fff" stroke="currentColor" stroke-width="2.2"/><circle cx="50" cy="60" r="10" fill="currentColor" opacity=".3"/><circle cx="50" cy="60" r="10" fill="none" stroke="currentColor" stroke-width="2.2"/><rect x="45" y="20" width="10" height="34" rx="5" fill="currentColor"/></symbol>
<symbol id="art-level-5" viewBox="0 0 100 74"><rect x="42" y="8" width="16" height="46" rx="8" fill="#fff" stroke="currentColor" stroke-width="2.2"/><circle cx="50" cy="60" r="10" fill="currentColor" opacity=".3"/><circle cx="50" cy="60" r="10" fill="none" stroke="currentColor" stroke-width="2.2"/><rect x="45" y="12" width="10" height="42" rx="5" fill="currentColor"/><path d="M68 18q5-6 0-12M78 24q5-6 0-12" fill="none" stroke="currentColor" stroke-width="2" stroke-linecap="round" opacity=".7"/></symbol>
<symbol id="art-passive" viewBox="0 0 100 74"><circle cx="50" cy="24" r="10" fill="#fff" stroke="currentColor" stroke-width="2.2"/><path d="M34 66V50q0-14 16-14t16 14v16" fill="#fff" stroke="currentColor" stroke-width="2.2" stroke-linejoin="round"/><path d="M42 26h16" stroke="currentColor" stroke-width="2.4" stroke-linecap="round"/><path d="M74 22h12" stroke="currentColor" stroke-width="2" stroke-linecap="round" stroke-dasharray="3 3" opacity=".6"/></symbol>
<symbol id="art-aggressive" viewBox="0 0 100 74"><circle cx="50" cy="24" r="10" fill="#fff" stroke="currentColor" stroke-width="2.2"/><path d="M34 66V50q0-14 16-14t16 14v16" fill="#fff" stroke="currentColor" stroke-width="2.2" stroke-linejoin="round"/><path d="M44 22l12 6M56 22l-12 6" stroke="currentColor" stroke-width="2.4" stroke-linecap="round"/><path d="M76 12l-8 10 10 2-8 10" fill="none" stroke="currentColor" stroke-width="2.4" stroke-linecap="round" stroke-linejoin="round"/></symbol>
<symbol id="art-assertive" viewBox="0 0 100 74"><circle cx="50" cy="24" r="10" fill="#fff" stroke="currentColor" stroke-width="2.2"/><path d="M34 66V50q0-14 16-14t16 14v16" fill="#fff" stroke="currentColor" stroke-width="2.2" stroke-linejoin="round"/><path d="M44 26q6 5 12 0" fill="none" stroke="currentColor" stroke-width="2.4" stroke-linecap="round"/><path d="M72 20h14" stroke="currentColor" stroke-width="2.6" stroke-linecap="round"/><path d="M80 14l6 6-6 6" fill="none" stroke="currentColor" stroke-width="2.4" stroke-linecap="round" stroke-linejoin="round"/></symbol>
<symbol id="art-queue-cut" viewBox="0 0 100 74"><g fill="#fff" stroke="currentColor" stroke-width="2" stroke-linejoin="round"><circle cx="22" cy="30" r="7"/><path d="M13 60V48q0-9 9-9t9 9v12z"/><circle cx="46" cy="30" r="7"/><path d="M37 60V48q0-9 9-9t9 9v12z"/></g><g fill="currentColor" opacity=".3"><circle cx="74" cy="26" r="7"/><path d="M65 60V44q0-9 9-9t9 9v16z"/></g><g fill="none" stroke="currentColor" stroke-width="2" stroke-linejoin="round"><circle cx="74" cy="26" r="7"/><path d="M65 60V44q0-9 9-9t9 9v16z"/></g><path d="M92 44H82" stroke="currentColor" stroke-width="2.2" stroke-linecap="round"/><path d="M86 39l-5 5 5 5" fill="none" stroke="currentColor" stroke-width="2.2" stroke-linecap="round" stroke-linejoin="round"/></symbol>
<symbol id="art-blamed" viewBox="0 0 100 74"><circle cx="66" cy="26" r="10" fill="#fff" stroke="currentColor" stroke-width="2.2"/><path d="M50 66V50q0-14 16-14t16 14v16" fill="#fff" stroke="currentColor" stroke-width="2.2" stroke-linejoin="round"/><path d="M40 34H14" stroke="currentColor" stroke-width="2.8" stroke-linecap="round"/><path d="M22 27l-8 7 8 7" fill="none" stroke="currentColor" stroke-width="2.6" stroke-linecap="round" stroke-linejoin="round"/></symbol>
<symbol id="art-plan-change" viewBox="0 0 100 74"><rect x="18" y="14" width="30" height="26" rx="4" fill="#fff" stroke="currentColor" stroke-width="2.2"/><path d="M26 24h14M26 32h10" stroke="currentColor" stroke-width="2" stroke-linecap="round" opacity=".45"/><rect x="52" y="34" width="30" height="26" rx="4" fill="currentColor" opacity=".25"/><rect x="52" y="34" width="30" height="26" rx="4" fill="none" stroke="currentColor" stroke-width="2.2"/><path d="M46 30l8 8" stroke="currentColor" stroke-width="2.4" stroke-linecap="round" stroke-dasharray="4 3"/><path d="M50 40l6-2-2 6" fill="none" stroke="currentColor" stroke-width="2.4" stroke-linecap="round" stroke-linejoin="round"/></symbol>
<symbol id="art-talked-over" viewBox="0 0 100 74"><path d="M8 16h40q4 0 4 4v14q0 4-4 4H26l-8 7v-7h-10q-4 0-4-4V20q0-4 4-4z" fill="#fff" stroke="currentColor" stroke-width="2" stroke-linejoin="round"/><path d="M40 30h44q4 0 4 4v16q0 4-4 4h-6v7l-9-7H40q-4 0-4-4V34q0-4 4-4z" fill="currentColor" opacity=".3"/><path d="M40 30h44q4 0 4 4v16q0 4-4 4h-6v7l-9-7H40q-4 0-4-4V34q0-4 4-4z" fill="none" stroke="currentColor" stroke-width="2.2" stroke-linejoin="round"/></symbol>
<symbol id="art-friends-out" viewBox="0 0 100 74"><path d="M8 62V26q0-4 4-4h26q4 0 4 4v36" fill="#fff" stroke="currentColor" stroke-width="2.2" stroke-linejoin="round"/><path d="M16 34h10M16 44h10" stroke="currentColor" stroke-width="2" stroke-linecap="round" opacity=".45"/><g fill="#fff" stroke="currentColor" stroke-width="2" stroke-linejoin="round"><circle cx="66" cy="30" r="7"/><path d="M57 62V48q0-9 9-9t9 9v14z"/><circle cx="86" cy="30" r="7"/><path d="M77 62V48q0-9 9-9t9 9v14z"/></g><path d="M46 44h6" stroke="currentColor" stroke-width="2.2" stroke-linecap="round"/><path d="M48 39l6 5-6 5" fill="none" stroke="currentColor" stroke-width="2.2" stroke-linecap="round" stroke-linejoin="round"/></symbol>
<symbol id="art-caring" viewBox="0 0 100 74"><circle cx="36" cy="22" r="10" fill="#fff" stroke="currentColor" stroke-width="2.2"/><path d="M22 66V48q0-14 14-14t14 14v18" fill="#fff" stroke="currentColor" stroke-width="2.2" stroke-linejoin="round"/><circle cx="68" cy="38" r="7" fill="#fff" stroke="currentColor" stroke-width="2"/><path d="M58 66V54q0-9 10-9t10 9v12" fill="#fff" stroke="currentColor" stroke-width="2" stroke-linejoin="round"/><path d="M50 48h8" stroke="currentColor" stroke-width="2.2" stroke-linecap="round"/></symbol>
<symbol id="art-avoid" viewBox="0 0 100 74"><circle cx="30" cy="26" r="9" fill="#fff" stroke="currentColor" stroke-width="2.2"/><path d="M19 62V48q0-11 11-11t11 11v14" fill="#fff" stroke="currentColor" stroke-width="2.2" stroke-linejoin="round"/><path d="M56 26h30v30H56z" fill="currentColor" opacity=".2"/><path d="M56 26h30v30H56z" fill="none" stroke="currentColor" stroke-width="2.2"/><path d="M60 30l22 22M82 30L60 52" stroke="currentColor" stroke-width="2.2" stroke-linecap="round"/></symbol>
<symbol id="art-job" viewBox="0 0 100 74"><path d="M18 26h64q4 0 4 4v28q0 4-4 4H18q-4 0-4-4V30q0-4 4-4z" fill="#fff" stroke="currentColor" stroke-width="2.2"/><path d="M38 26v-6q0-4 4-4h16q4 0 4 4v6" fill="none" stroke="currentColor" stroke-width="2.2" stroke-linejoin="round"/><path d="M14 42h72" stroke="currentColor" stroke-width="2" opacity=".5"/><rect x="44" y="38" width="12" height="8" rx="2" fill="currentColor" opacity=".4"/></symbol>
<symbol id="art-behind" viewBox="0 0 100 74"><g fill="#fff" stroke="currentColor" stroke-width="2.2"><rect x="16" y="46" width="34" height="10" rx="2"/><rect x="20" y="34" width="34" height="10" rx="2"/><rect x="24" y="22" width="34" height="10" rx="2"/><rect x="28" y="10" width="34" height="10" rx="2"/></g><path d="M74 20v34" stroke="currentColor" stroke-width="2.4" stroke-linecap="round"/><path d="M68 46l6 8 6-8" fill="none" stroke="currentColor" stroke-width="2.4" stroke-linecap="round" stroke-linejoin="round"/></symbol>
<symbol id="art-unsettled" viewBox="0 0 100 74"><path d="M20 54l14-18 14 12 14-22 14 18" fill="none" stroke="currentColor" stroke-width="2.6" stroke-linecap="round" stroke-linejoin="round"/><path d="M14 64h72" stroke="currentColor" stroke-width="2.2" stroke-linecap="round" opacity=".5"/><path d="M30 20l6-6 6 6" fill="none" stroke="currentColor" stroke-width="2" stroke-linecap="round" stroke-linejoin="round" opacity=".55"/></symbol>
<symbol id="art-transport" viewBox="0 0 100 74"><rect x="18" y="18" width="64" height="30" rx="6" fill="#fff" stroke="currentColor" stroke-width="2.2"/><path d="M24 26h52v12H24z" fill="currentColor" opacity=".2"/><circle cx="32" cy="54" r="6" fill="#fff" stroke="currentColor" stroke-width="2.2"/><circle cx="68" cy="54" r="6" fill="#fff" stroke="currentColor" stroke-width="2.2"/><path d="M50 18v30" stroke="currentColor" stroke-width="2" opacity=".5"/></symbol>
<symbol id="art-something-else" viewBox="0 0 100 74"><rect x="24" y="14" width="52" height="44" rx="5" fill="#fff" stroke="currentColor" stroke-width="2.2" stroke-dasharray="6 4"/><path d="M43 32q0-9 8-9t8 8-8 8v4" fill="none" stroke="currentColor" stroke-width="2.6" stroke-linecap="round"/><circle cx="51" cy="49" r="2.6" fill="currentColor"/></symbol>
</svg>
